<?xml version="1.0" encoding="UTF-8" standalone="no"?>
<!-- Created with Inkscape (http://www.inkscape.org/) -->

<svg
   width="100mm"
   height="100mm"
   viewBox="0 0 100 100"
   version="1.1"
   id="svg1"
   inkscape:version="1.4 (e7c3feb100, 2024-10-09)"
   sodipodi:docname="leaf.svg"
   xmlns:inkscape="http://www.inkscape.org/namespaces/inkscape"
   xmlns:sodipodi="http://sodipodi.sourceforge.net/DTD/sodipodi-0.dtd"
   xmlns="http://www.w3.org/2000/svg"
   xmlns:svg="http://www.w3.org/2000/svg">
  <sodipodi:namedview
     id="namedview1"
     pagecolor="#ffffff"
     bordercolor="#666666"
     borderopacity="1.0"
     inkscape:showpageshadow="2"
     inkscape:pageopacity="0.0"
     inkscape:pagecheckerboard="0"
     inkscape:deskcolor="#d1d1d1"
     inkscape:document-units="mm"
     inkscape:zoom="0.88996212"
     inkscape:cx="396.64609"
     inkscape:cy="560.69802"
     inkscape:window-width="3840"
     inkscape:window-height="2123"
     inkscape:window-x="0"
     inkscape:window-y="0"
     inkscape:window-maximized="1"
     inkscape:current-layer="layer1" />
  <defs
     id="defs1" />
  <g
     inkscape:label="Layer 1"
     inkscape:groupmode="layer"
     id="layer1">
    <g
       id="g2"
       transform="matrix(0.68067756,0,0,0.68067756,-26.397603,-18.045008)">
      <path
         style="fill:#5f8b3f;fill-opacity:1"
         d="m 49.470199,171.34108 c -0.21639,-3.89032 -0.792372,-8.24575 -2.179095,-16.47776 -2.667394,-15.83444 -2.778614,-24.48908 -0.481296,-37.45213 5.36573,-30.27714 25.165724,-56.032361 52.067448,-67.727732 8.060604,-3.504301 16.503374,-5.503156 31.706024,-7.506512 27.97936,-3.687029 37.20862,-6.373508 47.002,-13.68148 l 1.90998,-1.425253 0.14304,2.362121 c 3.60039,59.457516 -10.27802,94.950016 -45.81637,117.170266 -16.66845,10.4219 -32.5919,15.5406 -54.63115,17.56155 -16.394001,1.5033 -22.450515,3.24556 -28.345171,8.15397 l -1.262586,1.05134 z"
         id="path2" />
      <path
         style="font-variation-settings:normal;vector-effect:none;fill:#6d9748;fill-opacity:1;stroke:none;stroke-width:0.264583px;stroke-linecap:butt;stroke-linejoin:miter;stroke-miterlimit:4;stroke-dasharray:none;stroke-dashoffset:0;stroke-opacity:1;-inkscape-stroke:none;stop-color:#000000"
         d="m 175.45395,35.217018 c -6.30663,5.46575 -17.86878,11.77238 -32.1638,12.40304 -14.29503,0.63066 -42.25442,3.36353 -51.293921,12.82347 -9.0395,9.45995 -22.91408,26.067397 -16.60745,47.299702 6.30663,21.23232 26.067401,28.16961 37.839771,27.95939 11.77238,-0.21022 39.1011,0.42044 52.13479,-32.37402 13.0337,-32.794462 10.09061,-68.111582 10.09061,-68.111582 z"
         id="path4" />
      <path
         style="fill:#3a5725;fill-opacity:1"
         d="m 50.327755,169.53198 c -0.330844,-0.41417 -0.324974,-4.24041 0.0086,-5.61703 0.294652,-1.21594 0.864661,-3.99905 1.020475,-4.98255 0.239594,-1.51232 1.783136,-7.60418 1.998905,-7.88903 0.06919,-0.0914 0.179607,-0.41746 0.245363,-0.72471 0.157139,-0.73422 1.927825,-6.09509 2.503507,-7.57953 0.247977,-0.63943 0.577233,-1.49892 0.731681,-1.90998 0.154448,-0.41106 0.48041,-1.18642 0.724359,-1.72303 0.243949,-0.53661 0.443544,-0.99827 0.443544,-1.0259 0,-0.10423 1.22227,-2.70695 1.945887,-4.14359 0.41409,-0.82212 0.95719,-1.90582 1.206888,-2.40823 1.179838,-2.37389 1.984618,-10.11895 1.510048,-14.53242 -0.30961,-2.87936 -1.333507,-7.86921 -1.754508,-8.55041 -0.267698,-0.43314 -1.728929,-4.84317 -1.831594,-5.52778 -0.554548,-3.697991 2.496621,-0.46559 4.117648,4.36223 1.885517,5.61553 2.584169,12.14197 1.849047,17.27282 l -0.107081,0.74738 0.795963,-1.07955 c 1.870267,-2.53661 2.323386,-3.10419 4.494229,-5.6295 1.638115,-1.90559 7.745556,-7.98946 8.020418,-7.98946 0.09248,0 0.258978,-0.31763 0.369985,-0.70586 0.111007,-0.38822 0.25957,-0.78354 0.33014,-0.87848 0.07057,-0.0949 0.199907,-0.46864 0.287416,-0.83043 0.08751,-0.36179 0.386002,-1.55466 0.663317,-2.65082 1.022099,-4.0401 1.23327,-6.170159 1.251372,-12.622443 0.01753,-6.246852 0.04382,-5.966587 -0.997233,-10.62943 -0.495819,-2.220756 -0.530432,-2.718484 -0.203443,-2.92548 1.372743,-0.868997 4.040796,8.528178 4.390804,15.464886 0.15884,3.148009 -0.54555,9.496367 -1.263084,11.383627 -0.251592,0.66173 0.560884,0.46978 1.165184,-0.27529 0.900946,-1.11081 11.367651,-7.551362 18.933668,-11.650579 2.95461,-1.600784 3.74943,-2.037195 4.00346,-2.198158 0.60667,-0.384415 2.55299,-4.710737 3.36231,-7.473818 1.32257,-4.515392 1.66852,-11.317587 0.76864,-15.113721 -0.0866,-0.365386 -0.30659,-1.299613 -0.48883,-2.07606 -0.18224,-0.776447 -0.48745,-1.822781 -0.67825,-2.325188 -0.19079,-0.502406 -0.45581,-1.212419 -0.58892,-1.577806 -0.13312,-0.365386 -0.39371,-0.990037 -0.57909,-1.388112 -0.18538,-0.398075 -0.46368,-1.207962 -0.61844,-1.799749 l -0.28138,-1.075977 0.39209,-0.317832 c 1.93766,-1.570683 4.48762,3.213803 5.76127,10.809852 0.96894,5.778758 0.13967,13.419786 -2.02277,18.638018 -0.21653,0.522491 -0.39368,1.021625 -0.39368,1.109186 0,0.233663 8.42893,-4.444956 11.24427,-6.241321 0.47518,-0.303196 0.89775,-0.551266 0.93905,-0.551266 0.18106,0 6.00061,-3.682761 8.74337,-5.533031 5.32612,-3.593012 4.85185,-3.073025 5.86983,-6.43565 1.37311,-4.535735 1.59991,-8.444567 0.78969,-13.610201 -0.69859,-4.453879 -0.42598,-5.624367 1.04114,-4.470327 2.50934,1.973844 3.59648,11.599271 1.90856,16.898114 -0.27496,0.86317 -0.0922,0.812726 1.46914,-0.405452 6.40393,-4.996493 15.70738,-13.682131 22.4747,-20.982225 1.13967,-1.2294 2.5958,-2.798901 3.23584,-3.487782 0.64005,-0.688881 1.60208,-1.756993 2.13787,-2.373583 1.63538,-1.882028 1.95116,-1.30089 0.60104,1.106126 -0.45653,0.813899 -0.83005,1.505317 -0.83005,1.536486 0,0.446806 -4.37207,7.165979 -6.46673,9.938315 -3.13982,4.155645 -8.20822,9.914156 -10.74429,12.207235 -0.3536,0.319714 -1.31559,1.209804 -2.13776,1.977978 -2.05016,1.915511 -2.66432,2.466198 -3.81892,3.424261 -1.74664,1.449335 -1.72438,1.335968 -0.29178,1.485768 9.28949,0.971353 18.0886,7.262268 18.75237,13.406995 0.0986,0.913058 0.0873,0.949854 -0.32375,1.053027 -0.84738,0.212678 -1.40752,-0.244794 -5.26839,-4.302784 -4.59133,-4.825734 -9.69938,-7.080154 -16.04216,-7.080154 -2.49735,0 -2.8213,0.0867 -3.71994,0.995564 -0.64162,0.64892 -6.53919,4.813622 -10.46334,7.38892 -3.74889,2.460278 -4.05503,2.652179 -6.89252,4.320522 -4.25389,2.501128 -4.05798,2.236806 -1.9515,2.632939 2.84524,0.535062 8.00984,2.482061 10.08571,3.802203 2.90137,1.845115 4.45029,3.052827 6.48125,5.053497 5.37145,5.29134 9.91035,12.37211 9.6855,15.10958 -0.12344,1.50289 -1.42345,0.54103 -2.9508,-2.18326 -6.23843,-11.12731 -17.12325,-18.21982 -28.84199,-18.793328 l -2.1771,-0.106546 -2.47327,1.293092 c -1.3603,0.7112 -3.33276,1.740782 -4.38324,2.28796 -4.93729,2.571732 -6.30992,3.301042 -9.715965,5.162302 -2.009626,1.09817 -3.952819,2.15912 -4.318205,2.35767 -0.797232,0.4332 -1.842458,1.05804 -3.736909,2.23394 -0.776447,0.48195 -1.635936,1.00341 -1.909976,1.1588 -0.439302,0.24911 -0.580371,0.66889 -0.179925,0.53541 0.383119,-0.12771 5.6594,-0.029 7.071517,0.13222 6.813123,0.77811 14.575993,3.91748 19.390913,7.84184 0.36913,0.30086 0.95931,0.77086 1.31153,1.04446 3.50928,2.726 8.40848,8.84955 10.4012,13.00056 0.29504,0.6146 0.61431,1.20067 0.70949,1.30236 0.0952,0.1017 0.3827,0.69961 0.63896,1.32868 0.25626,0.62908 0.53307,1.29325 0.61514,1.47594 0.47296,1.05291 0.80092,2.45638 0.64296,2.75152 -0.55398,1.03514 -1.44151,0.71635 -2.20432,-0.79177 -0.31418,-0.62112 -0.91631,-1.68986 -1.33808,-2.37496 -0.42177,-0.6851 -0.89832,-1.50611 -1.059,-1.82447 -0.6802,-1.3477 -1.79697,-2.88285 -4.21793,-5.79805 -6.02688,-7.2573 -13.79934,-12.01946 -22.481704,-13.77449 -6.695768,-1.35346 -15.0414,-0.92474 -16.990239,0.8728 -0.338114,0.31186 -0.838195,0.74126 -1.111291,0.95422 -1.255999,0.97941 -5.253168,4.90664 -6.564154,6.44929 -0.349329,0.41106 -0.950611,1.12107 -1.336183,1.57781 -0.385572,0.45673 -0.765362,0.85533 -0.843979,0.88578 -0.07862,0.0305 -0.142939,0.15701 -0.142939,0.28123 0,0.12423 -0.130877,0.32353 -0.290839,0.4429 -0.159961,0.11936 -0.538495,0.55334 -0.841186,0.9644 -0.302691,0.41106 -0.87764,1.1929 -1.277664,1.73743 -0.400025,0.54452 -0.823562,1.1798 -0.941194,1.41172 -0.117632,0.23192 -0.45814,0.7154 -0.756684,1.07439 -0.298545,0.35899 -0.542808,0.72563 -0.542808,0.81475 0,0.0891 -0.186846,0.407 -0.415212,0.7064 -0.228367,0.29941 -0.415212,0.58344 -0.415212,0.63119 0,0.0477 -0.234656,0.48248 -0.521456,0.96607 -2.396013,4.04004 -2.387424,3.96638 -0.380126,3.25997 1.558182,-0.54836 1.701575,-0.5862 4.223278,-1.11442 7.522915,-1.57581 16.978482,0.75578 24.0823,5.93829 1.301096,0.94919 3.288833,2.62283 3.965782,3.33911 2.403821,2.54347 2.677612,2.90271 2.677612,3.51332 0,1.58801 -1.669733,1.131 -4.484291,-1.22738 -0.13702,-0.11481 -0.697556,-0.49743 -1.245636,-0.85028 -0.54808,-0.35284 -1.295462,-0.84603 -1.660848,-1.09596 -0.365387,-0.24994 -1.376291,-0.83294 -2.246454,-1.29556 -0.870163,-0.46261 -1.80439,-0.95938 -2.07606,-1.10391 -0.830056,-0.44161 -3.081998,-1.42532 -3.262896,-1.42532 -0.09371,0 -0.405886,-0.1032 -0.693731,-0.22933 -1.065401,-0.46684 -3.053148,-1.08741 -4.343306,-1.35596 -0.730774,-0.15211 -1.627632,-0.34086 -1.993018,-0.41944 -2.270618,-0.48834 -7.513704,-0.33501 -9.715963,0.28413 -2.285739,0.64261 -5.49401,1.87254 -5.812969,2.22848 -0.04567,0.051 -0.239454,0.20044 -0.430623,0.33217 -0.864828,0.59591 -1.894564,1.55851 -1.894564,1.77104 0,0.1285 -0.176462,0.62122 -0.392136,1.09494 -0.504909,1.109 -1.786698,4.76429 -1.670679,4.76429 0.04875,0 -0.02771,0.16611 -0.169913,0.36913 -0.1422,0.20302 -0.258545,0.53934 -0.258545,0.74738 0,0.20804 -0.07474,0.37826 -0.166085,0.37826 -0.09135,0 -0.166084,0.11098 -0.166084,0.24661 0,0.26079 -0.626686,2.48105 -1.055478,3.73942 -0.14007,0.41106 -0.439123,1.49477 -0.664563,2.40823 -0.225441,0.91347 -0.596495,2.40823 -0.824566,3.3217 -0.228071,0.91347 -0.468137,1.99717 -0.53348,2.40823 -0.168194,1.05808 -1.152307,4.0337 -1.593896,4.8194 -0.422671,0.75204 -0.606411,0.80643 -1.011451,0.29938 z"
         id="path1"
         sodipodi:nodetypes="ssscsssssssssssscsssssssssssssssssssssscssssssssssscssssssssssssssssssssssscssssssscsssssssssssssssscsssssssssssssssssssssssssssssssssssssssss" />
    </g>
  </g>
</svg>
